<?xml version="1.0" standalone="no"?>
<!DOCTYPE svg PUBLIC "-//W3C//DTD SVG 20010904//EN"
 "http://www.w3.org/TR/2001/REC-SVG-20010904/DTD/svg10.dtd">
<svg version="1.0" xmlns="http://www.w3.org/2000/svg"
 width="700.000000pt" height="700.000000pt" viewBox="0 0 700.000000 700.000000"
 preserveAspectRatio="xMidYMid meet">
<metadata>
Created by potrace 1.11, written by Peter Selinger 2001-2013
</metadata>
<g transform="translate(0.000000,700.000000) scale(0.100000,-0.100000)"
fill="#000000" stroke="none">
<path d="M1867 5162 l-1647 -1647 522 -523 523 -522 1127 1127 1128 1128 550
-550 550 -550 522 523 523 522 -1070 1070 c-588 588 -1072 1070 -1075 1070 -3
0 -746 -741 -1653 -1648z"/>
<path d="M4647 3433 l-1127 -1128 -553 553 -552 552 -523 -523 -522 -522 1075
-1075 1075 -1075 1650 1650 1650 1650 -523 523 -522 522 -1128 -1127z"/>
<path d="M3020 4015 l-495 -495 495 -495 495 -495 495 495 495 495 -495 495
-495 495 -495 -495z m990 -980 c-267 -267 -489 -485 -495 -485 -6 0 -228 218
-495 485 l-485 485 490 490 490 490 490 -490 490 -490 -485 -485z"/>
</g>
</svg>
