<?xml version="1.0" standalone="no"?>
<!DOCTYPE svg PUBLIC "-//W3C//DTD SVG 20010904//EN"
 "http://www.w3.org/TR/2001/REC-SVG-20010904/DTD/svg10.dtd">
<svg version="1.0" xmlns="http://www.w3.org/2000/svg"
 width="700.000000pt" height="700.000000pt" viewBox="0 0 700.000000 700.000000"
 preserveAspectRatio="xMidYMid meet">
<metadata>
Created by potrace 1.11, written by Peter Selinger 2001-2013
</metadata>
<g transform="translate(0.000000,700.000000) scale(0.100000,-0.100000)"
fill="#000000" stroke="none">
<path d="M1868 5163 l-1647 -1648 522 -522 523 -522 1124 1124 c619 619 1129
1124 1133 1122 5 -1 254 -248 553 -547 l545 -544 519 519 c286 286 520 523
520 526 0 8 -2125 2132 -2137 2136 -4 2 -749 -738 -1655 -1644z"/>
<path d="M4648 3433 l-1127 -1127 -552 552 -552 552 -518 -518 c-286 -285
-519 -523 -519 -528 0 -5 482 -490 1071 -1079 l1070 -1069 1650 1650 1650
1650 -521 519 c-286 286 -522 521 -523 522 -2 1 -510 -505 -1129 -1124z"/>
<path d="M3021 4019 c-270 -270 -491 -494 -491 -498 0 -10 975 -981 985 -981
10 0 985 971 985 981 0 6 -979 989 -985 989 -1 0 -224 -221 -494 -491z"/>
</g>
</svg>
